<svg xmlns="http://www.w3.org/2000/svg" viewBox="0 0 300 300">
<g fill="#fff" transform="translate(0 -752.36218)">
<path fill="#fff" d="m229.3417,963.2276c2.2383-2.005 1.5993-4.279-.0658-7.3443c-5.606-10.32-13.831-12.4347-13.0547-41.4702c.3267-12.2201-1.7736-36.8443-.8929-62.4115c1.1673-33.8842-20.9045-62.2909-68.4429-60.2357c-34.5461,1.4935-60.234,10.1724-76.4387,42.412c0,2.9673-6.2331,13.7124 2.0897,17.22c3.0336,1.2785 30.2477,3.6145 36.3086,3.9932c3.019-.7047 4.2711-1.589 5.4446-7.8024c.9368-4.96 7.0824-17.092 25.6817-18.0585c18.5993-.9665 27.2562,6.4268 26.477,37.0023c-51.5167,5.7792-58.877,10.0477-71.677,15.2477c-24.4,10-31.0424,35.2351-32.1571,49.2214c-2.509,31.4796 10.6858,57.1857 53.0857,57.1857c26.8,0 39.3678-4.1596 57.7678-23.7596c7.0976,11.1263 16.1884,18.6465 19.0857,21.9148c2.8973,3.2683 4.583,3.1173 12.6711-3.4706c0,0 21.1128-16.9528 24.1174-19.6442zm-94.8729-9.5744c-20.8537-.4563-21.1369-23.2021-21.2495-27.2018c-.5072-18.0254 17.8808-30.8519 52.7348-32.7426c3.7585,34.557-9.3867,64.8587-31.4853,59.9444z"/>
</g>
<g fill="#fff" transform="translate(0 -752.36218)">
<path fill="#fff" d="m72.126,263.1614c-16.1017-5.8136-58.0241-26.0636-55.4849-32.3424c1.7651-4.3648 22.2683,9.9902 54.284,16.4641c37.6813,7.6195 59.3467,6.8867 75.0419,7.0076c7.0958,.0547 37.5115-3.5911 63.7837-11.8093c26.2722-8.2182 46.7045-20.9642 51.0657-17.8152c5.6112,3.9526-15.7044,19.5735-40.6103,30.4144c-24.9059,10.841-53.2082,17.5324-63.1275,17.7716c-36.0952,.8705-68.8509-3.8772-84.9527-9.6908z" transform="translate(0 752.36218)"/>
<path fill="#fff" d="m234.2857,216.3393c-1.19,5.9105 29.4457-7.1284 36.25-.5357c6.8043,6.5926-7.7841,35.8395-3.9286,35.8036c3.8555-.0359 13.2089-13.1666 15.1786-20.5357c1.9697-7.3691 2.7945-14.8597 2.5082-20.5373c-.2863-5.6775-1.941-6.7251-10.2248-7.117c-6.3514-.3005-13.6808,.2248-16.7712,.9597c-3.0905,.7349-21.8222,6.0519-23.0122,11.9624z" transform="translate(0 752.36218)"/>
</g>
</svg>
