<svg width="32" xmlns="http://www.w3.org/2000/svg" height="32" viewBox="0 0 32 32">
<g transform="translate(0 -1020.3622)">
<path direction="ltr" fill="#fff" block-progression="tb" color="#000000" d="m4.9816,1051.3052 23.0779,0 0-24.905-5.7695-4.981-17.3084,0zm1.7308-1.4943 0-26.8974 14.4237,0 5.1925,4.4829 0,22.4145z"/>
<path direction="ltr" fill="#fff" block-progression="tb" color="#000000" d="m19.9822,1022.4154 0,4.981 0,.9962 1.1539,0 5.7695,0 .8294-1.7121-5.7695-4.981zm2.3078,2.4283 1.803,1.5565-1.803,0z"/>
<path fill="#fff" d="m18.8283,1027.4h4.6156v5.97h-4.6156z"/>
<path fill="#fff" stroke="#fff" stroke-width="1.608" d="m8.4433,1028.3926c1.1539,0 9.2312,0 9.2312,0"/>
<path fill="#fff" stroke="#fff" stroke-width="1.608" d="m8.4433,1031.3812 9.2312,0"/>
<path fill="#fff" stroke="#fff" stroke-width="1.608" d="m8.4433,1034.3698c1.1539,0 9.2312,0 9.2312,0"/>
<path fill="#fff" stroke="#fff" stroke-width="1.608" d="m8.4433,1037.3584c1.1539,0 16.1545,0 16.1545,0"/>
<path fill="#fff" stroke="#fff" stroke-width="1.608" d="m8.4433,1040.347c1.1539,0 16.1545,0 16.1545,0"/>
<path fill="#fff" stroke="#fff" stroke-width="1.608" d="m8.4433,1043.3356c1.1539,0 16.1545,0 16.1545,0"/>
<path fill="#fff" stroke="#fff" stroke-width="1.608" d="m8.4433,1046.3242c1.1539,0 16.1545,0 16.1545,0"/>
</g>
</svg>
