<svg width="32" xmlns="http://www.w3.org/2000/svg" height="32" viewBox="0 0 32 32">
<g stroke="#fff" transform="translate(0 -1020.3622)">
<path fill="none" stroke="#fff" stroke-width="3" d="m744.132,706.136a4,4 0 0,1 4,4v5a4,4 0 0,1 -4,4a4,4 0 0,1 -4-4v-5a4,4 0 0,1 4-4" transform="rotate(45)"/>
<path fill="none" stroke="#fff" stroke-width="3" d="m20.5962,1031.766c.3917,.3917 .3917,1.0225 0,1.4142l-7.7782,7.7782c-.3917,.3917-1.0225,.3917-1.4142,0c-.3917-.3917-.3917-1.0225 0-1.4142l7.7782-7.7782c.3917-.3917 1.0225-.3917 1.4142,0z"/>
<path fill="none" stroke="#fff" stroke-width="3" d="m744.132,723.874a4,4 0 0,1 4,4v5a4,4 0 0,1 -4,4a4,4 0 0,1 -4-4v-5a4,4 0 0,1 4-4" transform="rotate(45)"/>
</g>
</svg>
