<?xml version="1.0" encoding="UTF-8" standalone="no"?>
<!-- Created with Inkscape (http://www.inkscape.org/) -->

<svg
   xmlns:dc="http://purl.org/dc/elements/1.1/"
   xmlns:cc="http://creativecommons.org/ns#"
   xmlns:rdf="http://www.w3.org/1999/02/22-rdf-syntax-ns#"
   xmlns:svg="http://www.w3.org/2000/svg"
   xmlns="http://www.w3.org/2000/svg"
   version="1.1"
   width="300"
   height="300"
   id="svg2">
  <defs
     id="defs4" />
  <metadata
     id="metadata7">
    <rdf:RDF>
      <cc:Work
         rdf:about="">
        <dc:format>image/svg+xml</dc:format>
        <dc:type
           rdf:resource="http://purl.org/dc/dcmitype/StillImage" />
        <dc:title></dc:title>
      </cc:Work>
    </rdf:RDF>
  </metadata>
  <g
     transform="translate(0,-752.36218)"
     id="layer1"
     style="display:inline">
    <g
       id="text3082"
       style="font-size:18px;font-style:normal;font-variant:normal;font-weight:normal;font-stretch:normal;text-align:start;writing-mode:lr-tb;text-anchor:start;fill:#ffffff;fill-opacity:1;stroke:none;font-family:Aerial Mono;-inkscape-font-specification:Aerial Mono">
      <path
         d="m 229.34169,963.22763 c 2.23828,-2.00495 1.59933,-4.27905 -0.0658,-7.34435 -5.60601,-10.31998 -13.83104,-12.43472 -13.05474,-41.47025 0.32672,-12.22005 -1.77363,-36.8443 -0.89287,-62.41154 1.16728,-33.88417 -20.90446,-62.29094 -68.44285,-60.23571 -34.54615,1.49354 -60.234011,10.17238 -76.43872,42.41198 0,2.96732 -6.233136,13.71237 2.089652,17.21995 3.033564,1.27847 30.247658,3.61445 36.308568,3.99325 3.01905,-0.70471 4.27107,-1.58902 5.44456,-7.80239 0.93677,-4.95995 7.08235,-17.09204 25.68166,-18.05851 18.59931,-0.96647 27.25617,6.42684 26.47697,37.0023 -51.51669,5.77923 -58.87698,10.0477 -71.676971,15.2477 -24.399975,9.99999 -31.042391,35.23514 -32.157143,49.22143 -2.509028,31.47964 10.685757,57.18571 53.085714,57.18571 26.79998,0 39.36781,-4.15959 57.76779,-23.75957 7.09762,11.12628 16.18841,18.64649 19.08569,21.91476 2.89727,3.26827 4.58304,3.1173 12.67109,-3.4706 0,0 21.11284,-16.95282 24.1174,-19.64416 z m -94.8729,-9.57436 c -20.85366,-0.45634 -21.13695,-23.20211 -21.24949,-27.20178 -0.50716,-18.02542 17.88081,-30.85191 52.73476,-32.74264 3.75854,34.55703 -9.38673,64.85868 -31.48527,59.94442 z"
         id="path3087"
         style="font-size:400px;fill:#ffffff;fill-opacity:1;stroke:none;font-family:TeX Gyre Heros;-inkscape-font-specification:TeX Gyre Heros" />
    </g>
    <g
       id="g3865"
       style="fill:#ffffff;stroke:none">
      <path
         d="m 72.126033,263.16135 c -16.101748,-5.81364 -58.024125,-26.06357 -55.48491,-32.34242 1.76514,-4.36476 22.268264,9.99021 54.284024,16.46406 37.681273,7.61946 59.346653,6.88665 75.041893,7.00761 7.09584,0.0547 37.51151,-3.59112 63.7837,-11.80932 26.2722,-8.2182 46.7045,-20.96417 51.06575,-17.81518 5.61125,3.95256 -15.70439,19.57347 -40.61032,30.41445 -24.90592,10.84098 -53.20825,17.53238 -63.12745,17.7716 -36.09519,0.8705 -68.850939,-3.87717 -84.952687,-9.6908 z"
         transform="translate(0,752.36218)"
         id="path3091"
         style="fill:#ffffff;stroke:none" />
      <path
         d="m 234.28571,216.33929 c -1.19002,5.91052 29.44569,-7.12836 36.25,-0.53572 6.80431,6.59264 -7.78409,35.83948 -3.92857,35.80357 3.85552,-0.0359 13.20887,-13.16664 15.17857,-20.53571 1.9697,-7.36907 2.79446,-14.85975 2.5082,-20.53725 -0.28626,-5.6775 -1.94103,-6.72506 -10.22476,-7.117 -6.3514,-0.30051 -13.68079,0.22481 -16.77124,0.95968 -3.09046,0.73487 -21.82217,6.0519 -23.0122,11.96243 z"
         transform="translate(0,752.36218)"
         id="path3093"
         style="fill:#ffffff;stroke:none" />
    </g>
  </g>
</svg>
