<?xml version="1.0" encoding="UTF-8" standalone="no"?>
<!-- Generator: Adobe Illustrator 15.0.2, SVG Export Plug-In . SVG Version: 6.00 Build 0)  -->

<svg
   xmlns:dc="http://purl.org/dc/elements/1.1/"
   xmlns:cc="http://creativecommons.org/ns#"
   xmlns:rdf="http://www.w3.org/1999/02/22-rdf-syntax-ns#"
   xmlns:svg="http://www.w3.org/2000/svg"
   xmlns="http://www.w3.org/2000/svg"
   xmlns:sodipodi="http://sodipodi.sourceforge.net/DTD/sodipodi-0.dtd"
   xmlns:inkscape="http://www.inkscape.org/namespaces/inkscape"
   version="1.1"
   id="hatenablog-logo"
   x="0px"
   y="0px"
   width="32"
   height="32"
   viewBox="0 0 32 32"
   enable-background="new 0 0 300 300"
   xml:space="preserve"
   inkscape:version="0.48.4 r9939"
   sodipodi:docname="hatenablog-logo-white.svg"><metadata
     id="metadata15"><rdf:RDF><cc:Work
         rdf:about=""><dc:format>image/svg+xml</dc:format><dc:type
           rdf:resource="http://purl.org/dc/dcmitype/StillImage" /><dc:title></dc:title><cc:license
           rdf:resource="http://creativecommons.org/licenses/publicdomain/" /></cc:Work><cc:License
         rdf:about="http://creativecommons.org/licenses/publicdomain/"><cc:permits
           rdf:resource="http://creativecommons.org/ns#Reproduction" /><cc:permits
           rdf:resource="http://creativecommons.org/ns#Distribution" /><cc:permits
           rdf:resource="http://creativecommons.org/ns#DerivativeWorks" /></cc:License></rdf:RDF></metadata><defs
     id="defs13" /><sodipodi:namedview
     pagecolor="#ffffff"
     bordercolor="#666666"
     borderopacity="1"
     objecttolerance="10"
     gridtolerance="10"
     guidetolerance="10"
     inkscape:pageopacity="0"
     inkscape:pageshadow="2"
     inkscape:window-width="1150"
     inkscape:window-height="1078"
     id="namedview11"
     showgrid="true"
     inkscape:zoom="8.9001172"
     inkscape:cx="-6.3735301"
     inkscape:cy="18.297523"
     inkscape:window-x="0"
     inkscape:window-y="0"
     inkscape:window-maximized="0"
     inkscape:current-layer="hatenablog-logo"
     inkscape:snap-bbox="true"><inkscape:grid
       type="xygrid"
       id="grid2985"
       empspacing="5"
       visible="true"
       enabled="true"
       snapvisiblegridlinesonly="true" /></sodipodi:namedview><g
     id="g3"
     style="fill:#ffffff"
     transform="matrix(0.16164982,0,0,0.16164982,-8.2591741,-8.258851)"><g
       id="g5"
       style="fill:#ffffff"><path
         d="m 149.999,248.909 c -54.537,0 -98.906,-44.367 -98.906,-98.909 0,-54.537 44.369,-98.909 98.906,-98.909 54.545,0 98.908,44.372 98.908,98.909 0,54.542 -44.363,98.909 -98.908,98.909 z m 0,-185.238 c -47.601,0 -86.33,38.723 -86.33,86.329 0,47.605 38.729,86.332 86.33,86.332 47.61,0 86.338,-38.727 86.338,-86.332 0,-47.606 -38.728,-86.329 -86.338,-86.329 z"
         id="path7"
         style="fill:#ffffff"
         inkscape:connector-curvature="0" /></g><path
       d="m 161.52,101.16 c -4.832,-9.785 -7.783,-19.3 -9.273,-24.845 v 70.055 c 2.447,0.917 4.197,3.257 4.197,6.021 0,3.559 -2.887,6.442 -6.443,6.442 -3.56,0 -6.443,-2.885 -6.443,-6.442 0,-2.896 1.925,-5.317 4.558,-6.131 V 76.241 c -1.485,5.531 -4.438,15.092 -9.293,24.919 -7.571,15.314 -17.009,28.823 -17.009,28.823 l 6.036,82.598 c 0,0 5.736,6.401 22.31,6.41 0.007,0 0.007,0 0.013,0 0.005,0 0.005,0 0.01,0 16.573,-0.009 22.312,-6.41 22.312,-6.41 l 6.035,-82.598 c -0.003,0 -9.441,-13.508 -17.01,-28.823 z"
       id="path9"
       style="fill:#ffffff"
       inkscape:connector-curvature="0" /></g></svg>