<?xml version="1.0" encoding="UTF-8" standalone="no"?>
<!-- Generator: Adobe Illustrator 15.0.2, SVG Export Plug-In . SVG Version: 6.00 Build 0)  -->

<svg
   xmlns:dc="http://purl.org/dc/elements/1.1/"
   xmlns:cc="http://creativecommons.org/ns#"
   xmlns:rdf="http://www.w3.org/1999/02/22-rdf-syntax-ns#"
   xmlns:svg="http://www.w3.org/2000/svg"
   xmlns="http://www.w3.org/2000/svg"
   xmlns:sodipodi="http://sodipodi.sourceforge.net/DTD/sodipodi-0.dtd"
   xmlns:inkscape="http://www.inkscape.org/namespaces/inkscape"
   version="1.1"
   id="hatenablog-logo"
   x="0px"
   y="0px"
   width="300px"
   height="300px"
   viewBox="0 0 300 300"
   enable-background="new 0 0 300 300"
   xml:space="preserve"
   inkscape:version="0.48.4 r9939"
   sodipodi:docname="hatenablog-logo.svg"><metadata
     id="metadata15"><rdf:RDF><cc:Work
         rdf:about=""><dc:format>image/svg+xml</dc:format><dc:type
           rdf:resource="http://purl.org/dc/dcmitype/StillImage" /><dc:title></dc:title></cc:Work></rdf:RDF></metadata><defs
     id="defs13" /><sodipodi:namedview
     pagecolor="#ffffff"
     bordercolor="#666666"
     borderopacity="1"
     objecttolerance="10"
     gridtolerance="10"
     guidetolerance="10"
     inkscape:pageopacity="0"
     inkscape:pageshadow="2"
     inkscape:window-width="1150"
     inkscape:window-height="1078"
     id="namedview11"
     showgrid="false"
     inkscape:zoom="0.78666667"
     inkscape:cx="192.21791"
     inkscape:cy="66.89848"
     inkscape:window-x="0"
     inkscape:window-y="0"
     inkscape:window-maximized="0"
     inkscape:current-layer="hatenablog-logo" /><g
     id="g3"><g
       id="g5"><path
         fill="#333333"
         d="M149.999,248.909c-54.537,0-98.906-44.367-98.906-98.909c0-54.537,44.369-98.909,98.906-98.909    c54.545,0,98.908,44.372,98.908,98.909C248.907,204.542,204.544,248.909,149.999,248.909z M149.999,63.671    c-47.601,0-86.33,38.723-86.33,86.329c0,47.605,38.729,86.332,86.33,86.332c47.61,0,86.338-38.727,86.338-86.332    C236.337,102.394,197.609,63.671,149.999,63.671z"
         id="path7" /></g><path
       fill="#333333"
       d="M161.52,101.16c-4.832-9.785-7.783-19.3-9.273-24.845v70.055c2.447,0.917,4.197,3.257,4.197,6.021   c0,3.559-2.887,6.442-6.443,6.442c-3.56,0-6.443-2.885-6.443-6.442c0-2.896,1.925-5.317,4.558-6.131V76.241   c-1.485,5.531-4.438,15.092-9.293,24.919c-7.571,15.314-17.009,28.823-17.009,28.823l6.036,82.598c0,0,5.736,6.401,22.31,6.41   c0.007,0,0.007,0,0.013,0c0.005,0,0.005,0,0.01,0c16.573-0.009,22.312-6.41,22.312-6.41l6.035-82.598   C178.527,129.983,169.089,116.475,161.52,101.16z"
       id="path9" /></g></svg>